<svg xmlns="http://www.w3.org/2000/svg" xmlns:xlink="http://www.w3.org/1999/xlink" viewBox="0 0 403.51 330.51"><defs><style>.cls-1{fill:none;}.cls-2{isolation:isolate;}.cls-3{clip-path:url(#clip-path);}.cls-4{fill:#f1f1f4;}.cls-110,.cls-5,.cls-77,.cls-80,.cls-87{fill:#198754;}.cls-5{opacity:0.31;}.cls-6{fill:url(#Áåçûìÿííûé_ãðàäèåíò_29);}.cls-7{fill:url(#Áåçûìÿííûé_ãðàäèåíò_28);}.cls-8{fill:#e5e2ff;}.cls-9{fill:url(#Áåçûìÿííûé_ãðàäèåíò_28-2);}.cls-10,.cls-11{opacity:0.62;}.cls-10,.cls-11,.cls-17,.cls-18,.cls-19,.cls-22,.cls-23,.cls-24,.cls-25,.cls-26,.cls-30,.cls-33,.cls-35,.cls-38,.cls-39,.cls-40,.cls-41,.cls-42,.cls-43,.cls-44,.cls-45,.cls-46,.cls-47,.cls-48,.cls-49,.cls-50,.cls-51,.cls-52,.cls-53,.cls-54,.cls-57,.cls-58,.cls-59,.cls-60,.cls-61,.cls-65,.cls-76,.cls-79,.cls-80,.cls-81,.cls-82,.cls-83,.cls-84,.cls-85,.cls-89,.cls-90,.cls-91,.cls-92,.cls-93{mix-blend-mode:multiply;}.cls-10{fill:url(#Áåçûìÿííûé_ãðàäèåíò_27);}.cls-11{fill:url(#Áåçûìÿííûé_ãðàäèåíò_94);}.cls-12,.cls-22,.cls-24,.cls-41,.cls-42,.cls-43,.cls-44,.cls-45,.cls-46,.cls-47,.cls-49,.cls-51,.cls-52,.cls-53,.cls-54,.cls-57,.cls-59,.cls-60,.cls-61,.cls-81{opacity:0.5;}.cls-12{mix-blend-mode:screen;fill:url(#Áåçûìÿííûé_ãðàäèåíò_95);}.cls-13{fill:#fff;}.cls-14{fill:url(#Áåçûìÿííûé_ãðàäèåíò_74);}.cls-15{fill:url(#Áåçûìÿííûé_ãðàäèåíò_26);}.cls-16{fill:url(#Áåçûìÿííûé_ãðàäèåíò_26-2);}.cls-17,.cls-23,.cls-25,.cls-26,.cls-30,.cls-35,.cls-39,.cls-40,.cls-65,.cls-76,.cls-79,.cls-80,.cls-84,.cls-85,.cls-87{opacity:0.6;}.cls-17{fill:url(#linear-gradient);}.cls-18,.cls-19,.cls-48{opacity:0.76;}.cls-18{fill:url(#Áåçûìÿííûé_ãðàäèåíò_70);}.cls-19{fill:url(#Áåçûìÿííûé_ãðàäèåíò_70-2);}.cls-20{fill:#fe9083;}.cls-21{fill:url(#Áåçûìÿííûé_ãðàäèåíò_354);}.cls-22{fill:url(#Áåçûìÿííûé_ãðàäèåíò_70-3);}.cls-23{fill:url(#linear-gradient-2);}.cls-24{fill:url(#Áåçûìÿííûé_ãðàäèåíò_70-4);}.cls-25{fill:url(#linear-gradient-3);}.cls-26{fill:url(#linear-gradient-4);}.cls-27{fill:#cb4d7a;}.cls-28{fill:#ee8183;}.cls-29{fill:url(#Áåçûìÿííûé_ãðàäèåíò_71);}.cls-30{fill:url(#Áåçûìÿííûé_ãðàäèåíò_48);}.cls-31{fill:url(#Áåçûìÿííûé_ãðàäèåíò_71-2);}.cls-32{fill:#e28183;}.cls-33,.cls-38{opacity:0.91;}.cls-33{fill:url(#Áåçûìÿííûé_ãðàäèåíò_73);}.cls-34{fill:url(#Áåçûìÿííûé_ãðàäèåíò_71-3);}.cls-35{fill:url(#Áåçûìÿííûé_ãðàäèåíò_48-2);}.cls-36{fill:url(#Áåçûìÿííûé_ãðàäèåíò_64);}.cls-37{fill:url(#Áåçûìÿííûé_ãðàäèåíò_64-2);}.cls-38{fill:url(#Áåçûìÿííûé_ãðàäèåíò_73-2);}.cls-39{fill:url(#linear-gradient-5);}.cls-40{fill:url(#linear-gradient-6);}.cls-41{fill:url(#Áåçûìÿííûé_ãðàäèåíò_4);}.cls-42{fill:url(#Áåçûìÿííûé_ãðàäèåíò_4-2);}.cls-43{fill:url(#Áåçûìÿííûé_ãðàäèåíò_4-3);}.cls-44{fill:url(#Áåçûìÿííûé_ãðàäèåíò_4-4);}.cls-45{fill:url(#Áåçûìÿííûé_ãðàäèåíò_4-5);}.cls-46{fill:url(#Áåçûìÿííûé_ãðàäèåíò_4-6);}.cls-47{fill:url(#Áåçûìÿííûé_ãðàäèåíò_4-7);}.cls-48{fill:url(#Áåçûìÿííûé_ãðàäèåíò_70-5);}.cls-49{fill:url(#Áåçûìÿííûé_ãðàäèåíò_70-6);}.cls-50,.cls-58,.cls-89,.cls-90,.cls-91,.cls-92{opacity:0.3;}.cls-50{fill:url(#Áåçûìÿííûé_ãðàäèåíò_70-7);}.cls-51{fill:url(#Áåçûìÿííûé_ãðàäèåíò_4-8);}.cls-52{fill:url(#Áåçûìÿííûé_ãðàäèåíò_70-8);}.cls-53{fill:url(#Áåçûìÿííûé_ãðàäèåíò_4-9);}.cls-54{fill:url(#Áåçûìÿííûé_ãðàäèåíò_4-10);}.cls-55{fill:url(#Áåçûìÿííûé_ãðàäèåíò_25);}.cls-56{fill:#ebefff;}.cls-57{fill:url(#Áåçûìÿííûé_ãðàäèåíò_70-9);}.cls-58{fill:url(#Áåçûìÿííûé_ãðàäèåíò_70-10);}.cls-59{fill:url(#Áåçûìÿííûé_ãðàäèåíò_70-11);}.cls-60{fill:url(#Áåçûìÿííûé_ãðàäèåíò_70-12);}.cls-61{fill:url(#Áåçûìÿííûé_ãðàäèåíò_70-13);}.cls-62{fill:url(#Áåçûìÿííûé_ãðàäèåíò_71-4);}.cls-63{fill:url(#Áåçûìÿííûé_ãðàäèåíò_71-5);}.cls-64{fill:url(#Áåçûìÿííûé_ãðàäèåíò_387);}.cls-65{fill:url(#Áåçûìÿííûé_ãðàäèåíò_48-3);}.cls-66{fill:#556b2f;}.cls-67{fill:url(#Áåçûìÿííûé_ãðàäèåíò_59);}.cls-68{fill:url(#Áåçûìÿííûé_ãðàäèåíò_184);}.cls-69{fill:#ffebed;}.cls-70{fill:#617539;}.cls-71{fill:#3e4c22;}.cls-72{fill:#c6659c;}.cls-73{fill:#cb5f7d;}.cls-74{fill:#9f4a8b;}.cls-75{fill:#ffbcaf;}.cls-76{fill:url(#Áåçûìÿííûé_ãðàäèåíò_48-4);}.cls-78{fill:#d2726c;}.cls-79{fill:url(#Áåçûìÿííûé_ãðàäèåíò_35);}.cls-81{fill:url(#Áåçûìÿííûé_ãðàäèåíò_397);}.cls-82,.cls-83{opacity:0.8;}.cls-82{fill:url(#Áåçûìÿííûé_ãðàäèåíò_285);}.cls-83{fill:url(#Áåçûìÿííûé_ãðàäèåíò_285-2);}.cls-84{fill:url(#linear-gradient-7);}.cls-85{fill:url(#linear-gradient-8);}.cls-86{fill:#34c7ff;}.cls-88{fill:#744ca2;}.cls-89{fill:url(#Áåçûìÿííûé_ãðàäèåíò_85);}.cls-90{fill:url(#Áåçûìÿííûé_ãðàäèåíò_85-2);}.cls-91{fill:url(#Áåçûìÿííûé_ãðàäèåíò_85-3);}.cls-92{fill:url(#Áåçûìÿííûé_ãðàäèåíò_85-4);}.cls-93{fill:#d1d4fb;}.cls-94{fill:#e0ffff;}.cls-95{fill:url(#Áåçûìÿííûé_ãðàäèåíò_65);}.cls-96{fill:url(#Áåçûìÿííûé_ãðàäèåíò_14);}.cls-97{opacity:0.81;fill:url(#linear-gradient-9);}.cls-98{fill:#473da2;}.cls-99{fill:url(#Áåçûìÿííûé_ãðàäèåíò_302);}.cls-100{fill:url(#Áåçûìÿííûé_ãðàäèåíò_302-2);}.cls-101{fill:url(#Áåçûìÿííûé_ãðàäèåíò_322);}.cls-102{fill:url(#Áåçûìÿííûé_ãðàäèåíò_322-2);}.cls-103{fill:url(#Áåçûìÿííûé_ãðàäèåíò_25-2);}.cls-104,.cls-106{opacity:0.73;}.cls-104{fill:url(#Áåçûìÿííûé_ãðàäèåíò_97);}.cls-105{fill:#953da2;}.cls-106{fill:url(#Áåçûìÿííûé_ãðàäèåíò_97-2);}.cls-107{fill:#ff1d9c;}.cls-108{fill:#6877ff;}.cls-109{fill:#4f31e0;}.cls-110,.cls-111{fill-rule:evenodd;}.cls-111{fill:#3c4922;}</style><clipPath id="clip-path" transform="translate(-91.83 -35.74)"><rect class="cls-1" width="587.02" height="391.35"/></clipPath><linearGradient id="Áåçûìÿííûé_ãðàäèåíò_29" x1="149.73" y1="272.78" x2="149.73" y2="210.04" gradientTransform="matrix(0.91, -0.42, 0.42, 0.91, -73.83, 50.59)" gradientUnits="userSpaceOnUse"><stop offset="0" stop-color="#dbccff"/><stop offset="1" stop-color="#d1bbff"/></linearGradient><linearGradient id="Áåçûìÿííûé_ãðàäèåíò_28" x1="149.72" y1="275.23" x2="149.72" y2="212.49" gradientTransform="matrix(0.91, -0.42, 0.42, 0.91, -73.83, 50.59)" gradientUnits="userSpaceOnUse"><stop offset="0" stop-color="#b5a6e7"/><stop offset="1" stop-color="#7760bf"/></linearGradient><linearGradient id="Áåçûìÿííûé_ãðàäèåíò_28-2" x1="149.72" y1="259.63" x2="149.72" y2="233.18" xlink:href="#Áåçûìÿííûé_ãðàäèåíò_28"/><linearGradient id="Áåçûìÿííûé_ãðàäèåíò_27" x1="145.97" y1="233.71" x2="153.48" y2="233.71" gradientTransform="matrix(0.91, -0.42, 0.42, 0.91, -73.83, 50.59)" gradientUnits="userSpaceOnUse"><stop offset="0" stop-color="#8b8be0"/><stop offset="1" stop-color="#a177b7"/></linearGradient><linearGradient id="Áåçûìÿííûé_ãðàäèåíò_94" x1="149.72" y1="235.45" x2="149.72" y2="230.91" gradientTransform="matrix(0.91, -0.42, 0.42, 0.91, -73.83, 50.59)" gradientUnits="userSpaceOnUse"><stop offset="0" stop-color="#fff"/><stop offset="1" stop-color="#a177b7"/></linearGradient><linearGradient id="Áåçûìÿííûé_ãðàäèåíò_95" x1="153.69" y1="262.33" x2="153.69" y2="233.17" gradientTransform="matrix(0.91, -0.42, 0.42, 0.91, -73.83, 50.59)" gradientUnits="userSpaceOnUse"><stop offset="0"/><stop offset="1" stop-color="#fff"/></linearGradient><linearGradient id="Áåçûìÿííûé_ãðàäèåíò_74" x1="274.87" y1="366" x2="274.87" y2="293.31" gradientUnits="userSpaceOnUse"><stop offset="0" stop-color="#6456c0"/><stop offset="1" stop-color="#5f2c95"/></linearGradient><linearGradient id="Áåçûìÿííûé_ãðàäèåíò_26" x1="251.93" y1="341.25" x2="271.32" y2="341.25" gradientUnits="userSpaceOnUse"><stop offset="0" stop-color="#9e8cef"/><stop offset="1" stop-color="#caafee"/></linearGradient><linearGradient id="Áåçûìÿííûé_ãðàäèåíò_26-2" x1="337.54" y1="340.24" x2="356.38" y2="340.24" gradientTransform="matrix(-1, 0, 0, 1, 634.65, 0)" xlink:href="#Áåçûìÿííûé_ãðàäèåíò_26"/><linearGradient id="linear-gradient" x1="273.38" y1="366.24" x2="273.38" y2="293.31" gradientUnits="userSpaceOnUse"><stop offset="0" stop-color="#556b2f"/><stop offset="1" stop-color="#6e873c"/></linearGradient><linearGradient id="Áåçûìÿííûé_ãðàäèåíò_70" x1="190.7" y1="296.89" x2="190.7" y2="275.45" gradientUnits="userSpaceOnUse"><stop offset="0" stop-color="#ccf"/><stop offset="1" stop-color="#755cbb"/></linearGradient><linearGradient id="Áåçûìÿííûé_ãðàäèåíò_70-2" x1="165.86" y1="289.01" x2="165.86" y2="268" xlink:href="#Áåçûìÿííûé_ãðàäèåíò_70"/><linearGradient id="Áåçûìÿííûé_ãðàäèåíò_354" x1="279.01" y1="174.92" x2="279.01" y2="143.53" gradientUnits="userSpaceOnUse"><stop offset="0" stop-color="#d5cdf8"/><stop offset="1" stop-color="#f3edfb"/></linearGradient><linearGradient id="Áåçûìÿííûé_ãðàäèåíò_70-3" x1="262.85" y1="159.19" x2="295.16" y2="159.19" xlink:href="#Áåçûìÿííûé_ãðàäèåíò_70"/><linearGradient id="linear-gradient-2" x1="269.77" y1="300.32" x2="269.77" y2="142.17" xlink:href="#linear-gradient"/><linearGradient id="Áåçûìÿííûé_ãðàäèåíò_70-4" x1="204.13" y1="201.77" x2="242.65" y2="201.77" xlink:href="#Áåçûìÿííûé_ãðàäèåíò_70"/><linearGradient id="linear-gradient-3" x1="202.94" y1="246.06" x2="202.94" y2="172.11" xlink:href="#linear-gradient"/><linearGradient id="linear-gradient-4" x1="330.11" y1="224.75" x2="379.74" y2="224.75" xlink:href="#linear-gradient"/><linearGradient id="Áåçûìÿííûé_ãðàäèåíò_71" x1="186.8" y1="162.02" x2="186.8" y2="142.52" gradientUnits="userSpaceOnUse"><stop offset="0.02" stop-color="#ffc2a9"/><stop offset="1" stop-color="#ff9595"/></linearGradient><linearGradient id="Áåçûìÿííûé_ãðàäèåíò_48" x1="199.08" y1="161.56" x2="199.08" y2="129.28" gradientUnits="userSpaceOnUse"><stop offset="0" stop-color="#ffeadb"/><stop offset="0.99" stop-color="#c27cb6"/></linearGradient><linearGradient id="Áåçûìÿííûé_ãðàäèåíò_71-2" x1="198.03" y1="183.52" x2="198.03" y2="133.76" xlink:href="#Áåçûìÿííûé_ãðàäèåíò_71"/><linearGradient id="Áåçûìÿííûé_ãðàäèåíò_73" x1="189.13" y1="175.75" x2="204.78" y2="175.75" gradientUnits="userSpaceOnUse"><stop offset="0.02" stop-color="#d1a1d6"/><stop offset="0.99" stop-color="#bd89c4"/></linearGradient><linearGradient id="Áåçûìÿííûé_ãðàäèåíò_71-3" x1="380.76" y1="213.83" x2="380.76" y2="147.29" xlink:href="#Áåçûìÿííûé_ãðàäèåíò_71"/><linearGradient id="Áåçûìÿííûé_ãðàäèåíò_48-2" x1="388.62" y1="192.51" x2="388.62" y2="159.45" xlink:href="#Áåçûìÿííûé_ãðàäèåíò_48"/><linearGradient id="Áåçûìÿííûé_ãðàäèåíò_64" x1="395.14" y1="181.1" x2="395.14" y2="166.28" gradientUnits="userSpaceOnUse"><stop offset="0" stop-color="#ffb0b0"/><stop offset="0.98" stop-color="#ffc2a9"/></linearGradient><linearGradient id="Áåçûìÿííûé_ãðàäèåíò_64-2" x1="403.74" y1="183.38" x2="403.74" y2="175.25" xlink:href="#Áåçûìÿííûé_ãðàäèåíò_64"/><linearGradient id="Áåçûìÿííûé_ãðàäèåíò_73-2" x1="368.98" y1="199.58" x2="384.1" y2="199.58" xlink:href="#Áåçûìÿííûé_ãðàäèåíò_73"/><linearGradient id="linear-gradient-5" x1="347.95" y1="251.75" x2="347.95" y2="177.26" xlink:href="#linear-gradient"/><linearGradient id="linear-gradient-6" x1="183.95" y1="236.74" x2="308.53" y2="236.74" xlink:href="#linear-gradient"/><linearGradient id="Áåçûìÿííûé_ãðàäèåíò_4" x1="293.78" y1="215.89" x2="317.59" y2="215.89" gradientUnits="userSpaceOnUse"><stop offset="0" stop-color="#ccedff"/><stop offset="1" stop-color="#755cbb"/></linearGradient><linearGradient id="Áåçûìÿííûé_ãðàäèåíò_4-2" x1="272.18" y1="257.68" x2="307.18" y2="257.68" xlink:href="#Áåçûìÿííûé_ãðàäèåíò_4"/><linearGradient id="Áåçûìÿííûé_ãðàäèåíò_4-3" x1="273.8" y1="273.51" x2="311.19" y2="273.51" xlink:href="#Áåçûìÿííûé_ãðàäèåíò_4"/><linearGradient id="Áåçûìÿííûé_ãðàäèåíò_4-4" x1="241.63" y1="234.33" x2="241.63" y2="192.37" xlink:href="#Áåçûìÿííûé_ãðàäèåíò_4"/><linearGradient id="Áåçûìÿííûé_ãðàäèåíò_4-5" x1="245" y1="237.86" x2="245" y2="206.05" xlink:href="#Áåçûìÿííûé_ãðàäèåíò_4"/><linearGradient id="Áåçûìÿííûé_ãðàäèåíò_4-6" x1="194.73" y1="197.2" x2="194.73" y2="173.16" xlink:href="#Áåçûìÿííûé_ãðàäèåíò_4"/><linearGradient id="Áåçûìÿííûé_ãðàäèåíò_4-7" x1="214.18" y1="176.03" x2="223.87" y2="176.03" xlink:href="#Áåçûìÿííûé_ãðàäèåíò_4"/><linearGradient id="Áåçûìÿííûé_ãðàäèåíò_70-5" x1="319.46" y1="234.33" x2="319.46" y2="189.79" xlink:href="#Áåçûìÿííûé_ãðàäèåíò_70"/><linearGradient id="Áåçûìÿííûé_ãðàäèåíò_70-6" x1="369.54" y1="224.75" x2="369.54" y2="201.47" xlink:href="#Áåçûìÿííûé_ãðàäèåíò_70"/><linearGradient id="Áåçûìÿííûé_ãðàäèåíò_70-7" x1="343.14" y1="223.71" x2="343.14" y2="205.92" xlink:href="#Áåçûìÿííûé_ãðàäèåíò_70"/><linearGradient id="Áåçûìÿííûé_ãðàäèåíò_4-8" x1="189.7" y1="198.73" x2="189.7" y2="192.12" xlink:href="#Áåçûìÿííûé_ãðàäèåíò_4"/><linearGradient id="Áåçûìÿííûé_ãðàäèåíò_70-8" x1="207.36" y1="218.88" x2="207.36" y2="182.76" xlink:href="#Áåçûìÿííûé_ãðàäèåíò_70"/><linearGradient id="Áåçûìÿííûé_ãðàäèåíò_4-9" x1="300.27" y1="193.46" x2="300.27" y2="166.28" xlink:href="#Áåçûìÿííûé_ãðàäèåíò_4"/><linearGradient id="Áåçûìÿííûé_ãðàäèåíò_4-10" x1="264.67" y1="189.78" x2="264.67" y2="152.27" xlink:href="#Áåçûìÿííûé_ãðàäèåíò_4"/><linearGradient id="Áåçûìÿííûé_ãðàäèåíò_25" x1="252" y1="196.64" x2="314.65" y2="196.64" gradientUnits="userSpaceOnUse"><stop offset="0" stop-color="#8642a0"/><stop offset="1" stop-color="#6456c0"/></linearGradient><linearGradient id="Áåçûìÿííûé_ãðàäèåíò_70-9" x1="257.4" y1="160.49" x2="298.17" y2="160.49" xlink:href="#Áåçûìÿííûé_ãðàäèåíò_70"/><linearGradient id="Áåçûìÿííûé_ãðàäèåíò_70-10" x1="362.21" y1="222.1" x2="362.21" y2="198.5" xlink:href="#Áåçûìÿííûé_ãðàäèåíò_70"/><linearGradient id="Áåçûìÿííûé_ãðàäèåíò_70-11" x1="328.86" y1="248.71" x2="328.86" y2="177.26" xlink:href="#Áåçûìÿííûé_ãðàäèåíò_70"/><linearGradient id="Áåçûìÿííûé_ãðàäèåíò_70-12" x1="252.04" y1="282.27" x2="252.04" y2="261.79" xlink:href="#Áåçûìÿííûé_ãðàäèåíò_70"/><linearGradient id="Áåçûìÿííûé_ãðàäèåíò_70-13" x1="291.83" y1="276.65" x2="291.83" y2="266.7" xlink:href="#Áåçûìÿííûé_ãðàäèåíò_70"/><linearGradient id="Áåçûìÿííûé_ãðàäèåíò_71-4" x1="291.39" y1="148.8" x2="291.39" y2="80.75" xlink:href="#Áåçûìÿííûé_ãðàäèåíò_71"/><linearGradient id="Áåçûìÿííûé_ãðàäèåíò_71-5" x1="266.03" y1="121.34" x2="266.03" y2="101.28" xlink:href="#Áåçûìÿííûé_ãðàäèåíò_71"/><linearGradient id="Áåçûìÿííûé_ãðàäèåíò_387" x1="300.85" y1="128.93" x2="301.69" y2="124.55" gradientUnits="userSpaceOnUse"><stop offset="0" stop-color="#e1616a"/><stop offset="1" stop-color="#ff8883"/></linearGradient><linearGradient id="Áåçûìÿííûé_ãðàäèåíò_48-3" x1="293.26" y1="125.57" x2="293.26" y2="81.74" xlink:href="#Áåçûìÿííûé_ãðàäèåíò_48"/><linearGradient id="Áåçûìÿííûé_ãðàäèåíò_59" x1="291.12" y1="107.62" x2="291.12" y2="98.94" gradientUnits="userSpaceOnUse"><stop offset="0" stop-color="#cf6074"/><stop offset="1" stop-color="#f37270"/></linearGradient><linearGradient id="Áåçûìÿííûé_ãðàäèåíò_184" x1="308.44" y1="110.38" x2="308.44" y2="102.82" gradientUnits="userSpaceOnUse"><stop offset="0" stop-color="#cf6074"/><stop offset="1" stop-color="#ff817f"/></linearGradient><linearGradient id="Áåçûìÿííûé_ãðàäèåíò_48-4" x1="305.44" y1="106.42" x2="312.64" y2="106.42" xlink:href="#Áåçûìÿííûé_ãðàäèåíò_48"/><linearGradient id="Áåçûìÿííûé_ãðàäèåíò_35" x1="313.98" y1="97.69" x2="313.98" y2="78.65" gradientUnits="userSpaceOnUse"><stop offset="0" stop-color="#ffeadb"/><stop offset="0.99" stop-color="#8860c7"/></linearGradient><linearGradient id="Áåçûìÿííûé_ãðàäèåíò_397" x1="293.57" y1="149.63" x2="293.57" y2="146.09" gradientUnits="userSpaceOnUse"><stop offset="0" stop-color="#776d7e"/><stop offset="1" stop-color="#9d68c2"/></linearGradient><linearGradient id="Áåçûìÿííûé_ãðàäèåíò_285" x1="268.95" y1="116.58" x2="259.96" y2="105.57" gradientUnits="userSpaceOnUse"><stop offset="0" stop-color="#ffeadb"/><stop offset="0.99" stop-color="#b060f4"/></linearGradient><linearGradient id="Áåçûìÿííûé_ãðàäèåíò_285-2" x1="269.89" y1="115.17" x2="265.47" y2="109.75" xlink:href="#Áåçûìÿííûé_ãðàäèåíò_285"/><linearGradient id="linear-gradient-7" x1="314.28" y1="181.84" x2="336.86" y2="181.84" xlink:href="#linear-gradient"/><linearGradient id="linear-gradient-8" x1="304.56" y1="257.73" x2="313.29" y2="257.73" xlink:href="#linear-gradient"/><linearGradient id="Áåçûìÿííûé_ãðàäèåíò_85" x1="279.07" y1="159.78" x2="279.07" y2="112.71" gradientUnits="userSpaceOnUse"><stop offset="0" stop-color="#ccedff"/><stop offset="1" stop-color="#9d68c2"/></linearGradient><linearGradient id="Áåçûìÿííûé_ãðàäèåíò_85-2" x1="359.33" y1="136.83" x2="359.33" y2="116.1" xlink:href="#Áåçûìÿííûé_ãðàäèåíò_85"/><linearGradient id="Áåçûìÿííûé_ãðàäèåíò_85-3" x1="383.79" y1="136.83" x2="383.79" y2="116.1" xlink:href="#Áåçûìÿííûé_ãðàäèåíò_85"/><linearGradient id="Áåçûìÿííûé_ãðàäèåíò_85-4" x1="334.46" y1="136.83" x2="334.46" y2="116.1" xlink:href="#Áåçûìÿííûé_ãðàäèåíò_85"/><linearGradient id="Áåçûìÿííûé_ãðàäèåíò_65" x1="111.49" y1="85.89" x2="111.49" y2="64.19" gradientUnits="userSpaceOnUse"><stop offset="0" stop-color="#d93de3"/><stop offset="1" stop-color="#ff6dba"/></linearGradient><linearGradient id="Áåçûìÿííûé_ãðàäèåíò_14" x1="124.75" y1="85.89" x2="124.75" y2="64.19" gradientUnits="userSpaceOnUse"><stop offset="0" stop-color="#a242ea"/><stop offset="1" stop-color="#fe117e"/></linearGradient><linearGradient id="linear-gradient-9" x1="199.56" y1="350.24" x2="211.29" y2="256.8" gradientUnits="userSpaceOnUse"><stop offset="0" stop-color="#506236" stop-opacity="0.6"/><stop offset="1" stop-color="#fff" stop-opacity="0.6"/></linearGradient><linearGradient id="Áåçûìÿííûé_ãðàäèåíò_302" x1="473.53" y1="125.09" x2="473.53" y2="117.21" gradientUnits="userSpaceOnUse"><stop offset="0" stop-color="#459fff"/><stop offset="1" stop-color="#a96dff"/></linearGradient><linearGradient id="Áåçûìÿííûé_ãðàäèåíò_302-2" x1="103.36" y1="211.57" x2="103.36" y2="201.77" xlink:href="#Áåçûìÿííûé_ãðàäèåíò_302"/><linearGradient id="Áåçûìÿííûé_ãðàäèåíò_322" x1="393.26" y1="89.35" x2="393.26" y2="81.48" gradientUnits="userSpaceOnUse"><stop offset="0" stop-color="#b31a8f"/><stop offset="1" stop-color="#fe117e"/></linearGradient><linearGradient id="Áåçûìÿííûé_ãðàäèåíò_322-2" x1="139.28" y1="109.46" x2="139.28" y2="103.89" xlink:href="#Áåçûìÿííûé_ãðàäèåíò_322"/><linearGradient id="Áåçûìÿííûé_ãðàäèåíò_25-2" x1="36.28" y1="259.82" x2="36.28" y2="254.84" xlink:href="#Áåçûìÿííûé_ãðàäèåíò_25"/><linearGradient id="Áåçûìÿííûé_ãðàäèåíò_97" x1="149.01" y1="268.62" x2="149.01" y2="227.5" gradientUnits="userSpaceOnUse"><stop offset="0" stop-color="#d906e3"/><stop offset="1" stop-color="#ff6df9"/></linearGradient><linearGradient id="Áåçûìÿííûé_ãðàäèåíò_97-2" x1="387.96" y1="304.78" x2="387.96" y2="253.34" xlink:href="#Áåçûìÿííûé_ãðàäèåíò_97"/></defs><g class="cls-2"><g id="Layer_2" data-name="Layer 2"><g id="illustration"><g class="cls-3"><path class="cls-4" d="M159.73,192.23c0-.21.11-.32.31-.31l5.92.18a4.22,4.22,0,0,1,1.48.26,2.42,2.42,0,0,1,1,.66,2.4,2.4,0,0,1,.52,1,4.47,4.47,0,0,1,.14,1.3L169,197a5.12,5.12,0,0,1-.21,1.29,2.35,2.35,0,0,1-1.6,1.56,4.29,4.29,0,0,1-1.5.18l-3.19-.1-.65-1.86h-.09l-.06,1.84-2.23-.07Zm2.07,5.58,3.77.12a1.2,1.2,0,0,0,.92-.26,1.38,1.38,0,0,0,.3-1l0-1.33a1.37,1.37,0,0,0-.24-1,1.25,1.25,0,0,0-.9-.29l-3.62-.11a.17.17,0,0,0-.12.05.15.15,0,0,0,0,.11Z" transform="translate(-91.83 -35.74)"/><path class="cls-4" d="M172.28,195.62h-.08l-.07,2.36c0,.11.05.16.15.16l6.64.2-.06,2-8.71-.27c-.21,0-.31-.11-.31-.33l.22-7.23a.29.29,0,0,1,.33-.32l8.46.26a.29.29,0,0,1,.32.33l-.06,2.05-2.1.71h-.08l0-1c0-.08,0-.12-.11-.12l-4.47-.14a.13.13,0,0,0-.11.05.19.19,0,0,0,0,.1l0,1,3.68.11,0,1.6-3.09-.09Z" transform="translate(-91.83 -35.74)"/><path class="cls-4" d="M187.05,195.47H187l0-.87c0-.09,0-.13-.12-.13l-4.16-.13a.33.33,0,0,0-.41.37v.19a.44.44,0,0,0,.07.3.59.59,0,0,0,.29.1l4.87.83a3.3,3.3,0,0,1,.78.23,1.36,1.36,0,0,1,.52.37,1.19,1.19,0,0,1,.28.56,3,3,0,0,1,.06.77l0,.63a2.44,2.44,0,0,1-.14.85,1.47,1.47,0,0,1-.41.62,1.78,1.78,0,0,1-.73.36,3.89,3.89,0,0,1-1.09.1l-7-.21.06-2,6.29.19a.47.47,0,0,0,.38-.09.55.55,0,0,0,.1-.36v-.22a.52.52,0,0,0-.06-.29.49.49,0,0,0-.27-.11l-4.71-.74a3.27,3.27,0,0,1-.81-.22,1.55,1.55,0,0,1-.55-.36,1.18,1.18,0,0,1-.29-.54,2.43,2.43,0,0,1-.08-.75l0-.55a1.88,1.88,0,0,1,.49-1.32,2.09,2.09,0,0,1,1.53-.42l7,.21a.3.3,0,0,1,.32.36l-.05,1.62Z" transform="translate(-91.83 -35.74)"/><path class="cls-4" d="M190,200.72l.24-7.89,2.23.07-.23,7.88Z" transform="translate(-91.83 -35.74)"/><path class="cls-4" d="M200.52,197.65c0-.11,0-.23,0-.36s0-.24,0-.33v-.1l2.21.07-.12,3.86c0,.21-.1.31-.28.3l-5.93-.18a4.56,4.56,0,0,1-1.49-.27,2.46,2.46,0,0,1-1-.66,2.41,2.41,0,0,1-.53-1,4.45,4.45,0,0,1-.13-1.3l.05-1.62a4.25,4.25,0,0,1,.21-1.29,2.34,2.34,0,0,1,1.6-1.57,4.49,4.49,0,0,1,1.5-.17l5.9.18q.31,0,.3.33l-.05,1.7-2.09.7h-.09l0-.75c0-.08,0-.11-.1-.12l-3.76-.11a2.24,2.24,0,0,0-.55,0,.78.78,0,0,0-.37.2.83.83,0,0,0-.22.38,2,2,0,0,0-.08.6l0,1.39a1.37,1.37,0,0,0,.24,1,1.21,1.21,0,0,0,.9.31l3.73.11a.12.12,0,0,0,.13-.12Z" transform="translate(-91.83 -35.74)"/><path class="cls-4" d="M207.42,193.36a.62.62,0,0,1,.35.08.9.9,0,0,1,.18.25l2.81,5.75a.26.26,0,0,0,.21.14h.11c.12,0,.18-.05.18-.17l.18-5.93,2,.06-.23,7.57c0,.21-.11.31-.31.3l-3.21-.1a.48.48,0,0,1-.54-.33l-2.93-5.74a.21.21,0,0,0-.2-.14h-.11a.16.16,0,0,0-.18.17l-.17,5.92-2-.06.23-7.56c0-.22.11-.32.31-.31Z" transform="translate(-91.83 -35.74)"/><path class="cls-5" d="M473.66,199.65c0,96.32-111.11,166.49-207.43,166.49A174.41,174.41,0,0,1,91.83,191.73c0-96.32,128.49-156,224.81-156S473.66,103.33,473.66,199.65Z" transform="translate(-91.83 -35.74)"/><path class="cls-6" d="M165.8,183a21,21,0,0,0-9.3-8.16l-2.07,1,4.66,8.47a9.08,9.08,0,0,1-2.85,5h0a9.11,9.11,0,0,1-5.7-1l-3.49-9-2.08,1a21,21,0,0,0,.3,12.37s.88,2,1,2.22c.82,1,3,2.06,7.1,1.81l14.28,27.24a7.48,7.48,0,1,0,7.72-3.6l-11.72-28.43c2.79-2.94,3.38-5.26,3.17-6.6C166.79,184.92,165.8,183,165.8,183Zm11.75,47-3.79,1.76-3.42-2.39.36-4.16,3.79-1.77,3.42,2.4Z" transform="translate(-91.83 -35.74)"/><path class="cls-7" d="M166.84,185.21a21,21,0,0,0-9.3-8.17l-2.08,1,4.67,8.47a9.06,9.06,0,0,1-2.86,5v0a9.06,9.06,0,0,1-5.7-1l-3.5-9-2.07,1a20.94,20.94,0,0,0,.29,12.37s3.23,4.33,8.14,4l14.28,27.25a7.47,7.47,0,1,0,7.72-3.61L164.7,194C168.08,190.46,166.84,185.21,166.84,185.21Zm11.74,47L174.8,234l-3.42-2.39.36-4.16,3.78-1.77,3.42,2.39Z" transform="translate(-91.83 -35.74)"/><rect class="cls-8" x="145.37" y="179.6" width="2.29" height="2.45" transform="translate(-154.6 43.28) rotate(-25.04)"/><rect class="cls-8" x="154.84" y="175.19" width="2.29" height="2.45" transform="translate(-151.85 46.88) rotate(-25.04)"/><rect class="cls-8" x="174.09" y="230.74" width="4.18" height="2.45" transform="translate(-173.46 60.64) rotate(-25.04)"/><path class="cls-9" d="M157.49,200.84,169,223a5.68,5.68,0,0,0,4.66-2.18l-9.39-23.17A8.86,8.86,0,0,0,157.49,200.84ZM172.79,221a6.59,6.59,0,0,1-1.5,1,5.29,5.29,0,0,1-1.59.47l-11.55-21.71a11.87,11.87,0,0,1,2.78-1.82,9.59,9.59,0,0,1,2.85-.84Z" transform="translate(-91.83 -35.74)"/><path class="cls-8" d="M172.79,221l.89-.18A5,5,0,0,1,169,223l.68-.55A6.32,6.32,0,0,0,172.79,221Z" transform="translate(-91.83 -35.74)"/><path class="cls-10" d="M157.49,200.84l.66-.09a10.77,10.77,0,0,1,5.63-2.66l.51-.43a8.63,8.63,0,0,0-6.8,3.18Z" transform="translate(-91.83 -35.74)"/><path class="cls-11" d="M154.43,198.81A25.33,25.33,0,0,0,164.7,194l1.5,3.64s-1.7-1.69-5.43-.17c-4.37,1.78-4.13,5.3-4.13,5.3Z" transform="translate(-91.83 -35.74)"/><path class="cls-12" d="M166.2,197.67a4.42,4.42,0,0,0-2.28-.79l11.17,27,1.34-1.39Z" transform="translate(-91.83 -35.74)"/><path class="cls-13" d="M166.2,197.67a4.44,4.44,0,0,0,2.2,5.31Z" transform="translate(-91.83 -35.74)"/><path class="cls-14" d="M331.42,356.21a247.82,247.82,0,0,1-40.14,7.89c-4.8-22.52-12.87-47.57-12.87-47.57-2.45-1.46-7.23.33-7.23.33L257.67,366c-14.05-.93-31.55-4.85-39.36-6.73,2.17-30.22,16.47-59.89,16.47-59.89h0a4.25,4.25,0,0,1-.5-2.11,5.28,5.28,0,0,1,1.41-1.64c1-.93,2.24-1.86,2.24-1.86l70.61-.45s.71.37,1.62.91h0c1.54.94,3.63,2.38,3.63,3.44a4.85,4.85,0,0,1-.71,2.61l0,0C322.38,317.93,328.27,341.07,331.42,356.21Z" transform="translate(-91.83 -35.74)"/><path class="cls-15" d="M252.36,365.8l-.43-.07c4.81-28.38,15.81-46,15.94-46.24l.05-.07L271,316.7l.29.33-3.08,2.7C267.69,320.8,257.08,338,252.36,365.8Z" transform="translate(-91.83 -35.74)"/><path class="cls-16" d="M296.67,363.77C292,336,281.57,320.56,281,319.51L278.27,317l.29-.33,2.83,2.57c.13.24,10.9,16.05,15.72,44.43Z" transform="translate(-91.83 -35.74)"/><path class="cls-17" d="M313.79,297.66a4.85,4.85,0,0,1-.71,2.61l0,0c-14.7,3.33-25.88,17.05-25.88,17.05,5.49,10.54,13.51,32.3,18,44.93-6.11,1.09-11.31,1.89-13.78,2.26-4.79-22.63-13-48-13-48-2.45-1.46-7.23.33-7.23.33l-13.57,49.38c-4.18-.28-7.73-.77-10.16-1.18,4.22-21.43,12.65-44.36,12.65-44.36-10.18-11.86-25.32-21.32-25.32-21.32h0l-1.8-1.13,1.3-1c6.45,6.19,27,14.23,28.28,14.73l-26.87-16.37c1-.93,2.24-1.86,2.24-1.86l70.61-.45s.71.37,1.62.91l-19.28,10.61Z" transform="translate(-91.83 -35.74)"/><polygon class="cls-18" points="186.58 280.8 194.82 275.45 192.87 280.8 191.43 296.89 186.58 280.8"/><polygon class="cls-19" points="179.35 281.13 170.76 276.27 152.38 268 175.79 283.46 177.18 289.01 179.35 281.13"/><path class="cls-20" d="M294.8,151.3c.05.38.09.58.09.58a49.65,49.65,0,0,1-1.46,5,40.65,40.65,0,0,1-5.49,10.68,21,21,0,0,1-2.4,2.8c-12.86-4-19.19-16.61-21.63-22.87a.62.62,0,0,1,0-.1c-.47-1.18-.78-2.13-1-2.75h0c-.15-.5-.22-.77-.22-.77l.16-.33,0,0c.22-.44.43-.89.62-1.32a62.92,62.92,0,0,0,3.53-9.85c.62-2.31,1-4.09,1.12-5,.08-.48.11-.75.11-.75l6,3.16,20.65,10.93a35.33,35.33,0,0,0-.44,5.24c0,1.1,0,2.09.08,2.92.06,1,.17,1.84.25,2.37h0A.59.59,0,0,0,294.8,151.3Z" transform="translate(-91.83 -35.74)"/><path class="cls-21" d="M289.07,171.74a17.9,17.9,0,0,1-4.27,3.12l-.1.06-.13-.07h0c-.44-.27-2-1.22-4-2.77-5.39-4.06-14.4-12.28-17-23.35a.08.08,0,0,0,0,0,27.81,27.81,0,0,1-.62-4.05h0c0-.37-.05-.73-.06-1.1a56.86,56.86,0,0,0,4.89,8.75c3.65,5.34,9.12,11.16,15.66,11.2,5.66,0,8.56-3.84,10-7.41a19.62,19.62,0,0,0,1.19-4v0c.06-.31.11-.6.15-.83h0a2.26,2.26,0,0,0,0-.33c.06-.4.07-.62.07-.62S297.06,163.74,289.07,171.74Z" transform="translate(-91.83 -35.74)"/><path class="cls-22" d="M289.07,171.74a17.9,17.9,0,0,1-4.27,3.12h-.24c-.44-.27-2-1.22-4-2.77-5.39-4.06-14.4-12.28-17-23.35a.08.08,0,0,0,0,0,27.81,27.81,0,0,1-.62-4.05h0c0-.37-.05-.73-.06-1.1a56.86,56.86,0,0,0,4.89,8.75s3.56,9.78,11.26,14.63c3.86,2.42,6.79,2.07,8.94.64a13.34,13.34,0,0,0,4.36-5.76,13.52,13.52,0,0,0,1.13-4.92c0-.29,0-.56,0-.8a19.62,19.62,0,0,0,1.19-4v0c.06-.31.11-.6.15-.83h0a2.26,2.26,0,0,0,0-.33c.06-.4.07-.62.07-.62S297.06,163.74,289.07,171.74Z" transform="translate(-91.83 -35.74)"/><path class="cls-23" d="M338.57,251.67l-.15.07c-.72.08-3-.41-5.91-3h0l0,0,0,0C330,246.55,327,243,324.06,237c-5.91-11.8-7.6-19.68-7.87-21l0-.21-3.44,5.46c-2.34,7-6.76,36.09-6.68,37.34s3.92,7.35,3.84,8.1v0c-.11.76-1.83,2.43-2.33,4.24-.33,1.21,2,5,3.66,7.86h0a11.45,11.45,0,0,1,1.52,3.16c0,1.33-4.18,7.84-4.18,7.84v3.51l-.06.06-.2.18-.16.13c-1.58,1.25-8.31,5.35-29.32,6.48-24.9,1.33-41.48-6.68-41.48-6.68l1.25-3.43s-1.16-1-1.25-1.5.91-1.68.91-1.68-2.5-1.33-2.5-3,5-6.84,4.85-11.27-4-8.35-4.51-10.85,6.51-8.68,6.51-8.68c-6-19-7.18-44.59-7.18-44.59l-1.17-1.34s-7.18,16.37-13.69,24.38c-.78.95-1.6,1.89-2.45,2.8a69,69,0,0,1-5.6,5.42c-4.51,3.93-8.61,6.51-9.65,6.31-1.68-.33-8.36-13.53-8.05-27.06.14-6.43,4-13.63,8.05-19.4.43-.62.86-1.23,1.3-1.82a93,93,0,0,1,6.91-8.33l.8-.84s-.91-3-1.54-5.51a1.29,1.29,0,0,0,0-.19.37.37,0,0,0,0-.09l0-.06c-.37-1.58-.6-2.94-.38-3.28.55-.89,3.79-1.89,4.34-2.55s2.89-11.92,4.67-13.14,4.72-2,14.74-6l1.52-.6c11.24-4.45,22.27-9.85,22.27-9.85l4.23-5.2h1.88l-.62,1.32,0,0c.3,1.34.64,2.63,1,3.85a.62.62,0,0,0,0,.1c5.82,18.35,20.79,24.27,20.79,24.27,10.4-7.68,10.19-19.87,10.19-19.87v-1.67l1.95.58,1.33,3.17s2.26,3.51,11.2,7.44a53.37,53.37,0,0,1,4.91,2.51c8.17,4.64,17.27,11.83,18,13.35a4.49,4.49,0,0,1,.23.76h0c1,3.77,2.94,17.9,4.77,22.94a11.5,11.5,0,0,0,4.29,5.78h0a6.7,6.7,0,0,0,1.71.89c.14.78.28,1.54.4,2.3C347.49,234.12,340.2,250.52,338.57,251.67Z" transform="translate(-91.83 -35.74)"/><path class="cls-24" d="M242.65,206.05l-7.26,2.44-1.17-1.34s-7.18,16.37-13.69,24.38c-.78.95-1.6,1.89-2.45,2.8a69,69,0,0,1-5.6,5.42l-5.54-23.86-2.81-18.11a93,93,0,0,1,6.91-8.33l.8-.84s-.91-3-1.54-5.51a1.29,1.29,0,0,0,0-.19.37.37,0,0,0,0-.09l0-.06c-.37-1.58-.6-2.94-.38-3.28.55-.89,3.79-1.89,4.34-2.55s2.89-11.92,4.67-13.14c0,0-1.16,10.79,5,24.49l3,4.23,8.8,7.07S239,204,242.65,206.05Z" transform="translate(-91.83 -35.74)"/><path class="cls-25" d="M221.64,225.58c-1.56,11.57-18.81,20.48-18.81,20.48-3.84,0-8.14-6.68-12-14.92s-4.14-31.91-4.34-33.38-2.38-4.39-2.51-5.64,3.51-3.84,3.51-3.84l0-.06,0-.06c-.38-.81-2.52-5.39-2.37-6.23s4.25-2.91,4.25-2.91l.26,4.5s9.5-1.8,12.71-9.16l.57-2.25,1.59,1v9.69s.32,1.51.82,1.51,4.21-1.85,5-1.6,1.55,5.44,2.59,6.1,3.79,2.59,4.21,3.51a17.27,17.27,0,0,1,.22,3.66,37.34,37.34,0,0,0,.36,6.11C218.19,204.73,223.2,214,221.64,225.58Z" transform="translate(-91.83 -35.74)"/><path class="cls-26" d="M379.39,215.66c-.78,1.23-4.67,3.79-5.68,4.8s0,4.29,0,4.29a135.42,135.42,0,0,1-35.14,26.92l-.15.07c-10.27-6.91-9.39-18.29-6-27.88a72,72,0,0,1,9.1-17.08h0a21.27,21.27,0,0,1,5.22-1.44,3.11,3.11,0,0,1,1.93.6c1.25.77,2.31,2,3.33,1.48,1.51-.75,4.88-8.71,7.16-8.93,1.59-.15,3.81,1.47,5.28,2.39.64.41,1.14.68,1.39.61.84-.22,3.68-3.62,3.9-3.71s1.52.86,1.52.86l-.91,1.13a30.89,30.89,0,0,0,6,13.41l3.06-4.48S380.17,214.44,379.39,215.66Z" transform="translate(-91.83 -35.74)"/><path class="cls-27" d="M294.84,151c0,.12,0,.23,0,.35s-.1.47-.17.7v0c-1.05,3.89-5.29,7.86-10.64,5.95-5.84-2.09-17-25.65-17-25.65l1.12-5,26.39,21.5.29,2Z" transform="translate(-91.83 -35.74)"/><path class="cls-28" d="M206.94,146.64s-1.61-8.9-.89-15.47a70.88,70.88,0,0,0-.18-14,3.59,3.59,0,0,0-2.77,0c-1.17.67-3.89,7.46-2.67,12.92s.28,18.53.28,18.53h-1.84l-4-5.51-1.94-.56s-11.22,10.58-11,16.87l1.46,5.59,13.82-.47,9-10.3Z" transform="translate(-91.83 -35.74)"/><path class="cls-29" d="M192.92,142.52a72,72,0,0,0,1.86,13,3.11,3.11,0,0,1-3.14,2.63l-.71-.79s-.5,2.79-3.05,3L185.46,158l.62,2a3.42,3.42,0,0,1-3.17,2.05s-3.84-3-4.09-6.93l3.8-3.21v-2.47l4.51-3.17.08-1.8A10.6,10.6,0,0,1,192.92,142.52Z" transform="translate(-91.83 -35.74)"/><path class="cls-30" d="M206.21,129.28a6.26,6.26,0,0,1-1.63,2.39,14,14,0,0,1-3.74,1.18l-.13,15.74h-1.84l-4-5.51s2,3.15,2.16,5.51l-1.58.78-1.38-4.72-.66,3.4.65,4.22a11.15,11.15,0,0,1,6.68-2.13l.65,1.18s-7.78,6.44-9.58,10.24c0,0,3.84-4.88,12.61-10.27l.84-2.59,1.1-6.18S205.3,133.62,206.21,129.28Z" transform="translate(-91.83 -35.74)"/><path class="cls-31" d="M212.74,156.72c-.73,2.17-8.3,11.18-9.14,13.14a27.33,27.33,0,0,0-1.34,4.5c-3.71,8-12.71,9.16-12.71,9.16l-.42-7.26s-4.84-2.79-5.66-4.31v0l-.1-.25a60.07,60.07,0,0,1,0-6.68l8.47-3.43c3.68-4.76,12.62-10.27,12.62-10.27l.41-2.5c-6.42-3.15-5.34-12.7-4.26-13.87a4.78,4.78,0,0,1,3.09-1.16S206,141.44,207.5,145,213.46,154.55,212.74,156.72Z" transform="translate(-91.83 -35.74)"/><path class="cls-32" d="M187.21,144.44s.95,8.77,3.72,12.95a20.44,20.44,0,0,1-3.8-11.15Z" transform="translate(-91.83 -35.74)"/><path class="cls-32" d="M182.62,149.41s.92,7.06,5.26,11c0,0-3.85-1.92-5.26-8.51Z" transform="translate(-91.83 -35.74)"/><path class="cls-33" d="M204.78,168s-9.55,9.27-15.65,8.27l.42,7.26a16.11,16.11,0,0,0,13.27-11.42A27.6,27.6,0,0,1,204.78,168Z" transform="translate(-91.83 -35.74)"/><path class="cls-34" d="M406.64,180.59s-8.77,16-19,21h-3.5L376,213.83s-5.24-3.29-5.63-14.08a9.88,9.88,0,0,0,2.29-4.08s-2.9-2.27-3.68-3.94-1.06-6.68-1.61-8.74-5.29-6.34-6.35-6.9-5.84-.84-5.84-.84-.67-1.72,0-2.55,8.12-3.74,12.19-.95a18.26,18.26,0,0,0,.72,3.23c.45,1.11,4,5.06,4.57,5.06s2.95-2,4-3.56a159.63,159.63,0,0,0,7.7-17l0-.11c0-.07.05-.13.06-.18l0-.12a.05.05,0,0,0,0,0c1-3.39,6.85-9.91,10-11.69,0,0,1.33-.33,2,1.34A72.69,72.69,0,0,1,391.41,160c-.44.71-.92,1.55-1.41,2.45h0c-2.23,4.09-4.74,9.46-5.1,10.25l-.05.09,1.4.72L390,170l3.86-3.66,8.86,9.35-.87,1.11-2.77,3.55,1.4.26,3.26-3.61Z" transform="translate(-91.83 -35.74)"/><path class="cls-35" d="M404.59,184l-2.8,4.12s-15.39-11.86-18.73-12.87-4.56-.33-4.56-.33l-3.45,4.4s6.35,5.62,6.9,13.19c0,0-2.11-9.57-9.29-12.47.55,0,2.95-2,4-3.56a159.63,159.63,0,0,0,7.7-17,4.34,4.34,0,0,0,.14,3c.76,1.4,5.22.08,5.48,0h0l-5.11,10.25-.05.09,1.4.72L390,170l-1.89,4.38,13.74,2.42-2.77,3.55,1.4.26Z" transform="translate(-91.83 -35.74)"/><path class="cls-36" d="M393.86,166.29s2.68-.39,4.4,3.06l-.39,1.12s2.61.51,5.12,4.73a14.25,14.25,0,0,1-7.73,5.9s-2.57-.72-3-2.9l.5-1.39-2,1.51s-2.4.72-3.45-2.84Z" transform="translate(-91.83 -35.74)"/><path class="cls-37" d="M407.45,179.48a4.14,4.14,0,0,0-2.18-4.23L400,181.1a2.73,2.73,0,0,0,2.45,2.28S406.05,182.16,407.45,179.48Z" transform="translate(-91.83 -35.74)"/><path class="cls-38" d="M369,191.73a39.23,39.23,0,0,0,15.12,9.82l-3.88,5.87-8.08-10.26.52-1.49S369.42,193.24,369,191.73Z" transform="translate(-91.83 -35.74)"/><path class="cls-32" d="M397.87,170.47a30.42,30.42,0,0,1-5.12,6.34l-.5,1.39s5-3.35,6.8-7.23A3.14,3.14,0,0,0,397.87,170.47Z" transform="translate(-91.83 -35.74)"/><path class="cls-39" d="M379.39,215.66c-.78,1.23-4.67,3.79-5.68,4.8s0,4.29,0,4.29a135.42,135.42,0,0,1-35.14,26.92l-.15.07c-1.34.16-7.85-1.67-14.36-14.7-5.91-11.8-7.6-19.68-7.87-21l0-.21,1.44-1.95,2.13-24,1.5,4.83c5.68-6.84,11-17.36,11-17.36l.23.76h0c1,3.77,2.94,17.9,4.77,22.94a11.5,11.5,0,0,0,4.29,5.78v0h0c-5.23,4.77-7.82,11.62-9.1,17.08a47.49,47.49,0,0,0-1.25,8.84,59.17,59.17,0,0,1,6-14.95,32.27,32.27,0,0,1,6.46-7.8,52,52,0,0,1,5-4c1.25.77,2.31,2,3.33,1.48-6.87,10.33-6.7,30.75-.24,26.86s7.92-12.16,7.92-12.16c-1.52-10.08-1.07-21.44.16-23.6,1.49.05,5.74,3,6,3A34.88,34.88,0,0,0,371,221.24l3.68-5.68a35.33,35.33,0,0,1-5-17.8c.23-.09,1.52.86,1.52.86l-.91,1.13a30.89,30.89,0,0,0,6,13.41l3.06-4.48S380.17,214.44,379.39,215.66Z" transform="translate(-91.83 -35.74)"/><path class="cls-40" d="M308.53,289.81v3.51l-.06.06-.2.18-.16.13c-1.58,1.25-8.31,5.35-29.32,6.48-24.9,1.33-41.48-6.68-41.48-6.68l1.25-3.43s-1.16-1-1.25-1.5.91-1.68.91-1.68-2.5-1.33-2.5-3c0-1.51,4.09-5.87,4.75-10a5.75,5.75,0,0,0,.1-1.3c-.17-4.41-4-8.31-4.51-10.82v0c-.51-2.51,6.51-8.68,6.51-8.68-6-19-7.18-44.59-7.18-44.59l-1.17-1.34s-7.18,16.37-13.69,24.38-16,14.87-17.7,14.53c-3.84,0-8.14-6.68-12-14.92s-4.14-31.91-4.34-33.38-2.38-4.39-2.51-5.64c4.18,7.18,10.83,5.07,10.83,5.07-4.82.11-7.32-8.91-7.32-8.91l0-.06,0-.06-2.36-6.22c.27.3,5.77,6.46,11.1,2.66s8.27-11.44,8.27-11.44v9.69s.32,1.51.82,1.51a118.12,118.12,0,0,1-2.41,15.24c-2.48,11.57-5.87,22.74-5.87,22.74s9.2-5,12.43-17.69a53.33,53.33,0,0,0,1.65-15.2,37.32,37.32,0,0,0-.74-6.35,1.29,1.29,0,0,0,0-.19.37.37,0,0,0,0-.09v0l.89,1.89,1.69,4.19c2,16.29-2.08,40.83-2.08,40.83,5.9-7.35,7.13-23.6,6.87-27.55-.11-1.88-.26-4.21-.36-6.11-.13-2.08-.22-3.66-.22-3.66l12.08,7.21-2.23-7.07,8.8,7.07s7.9,9.52,16,10.63,38,.45,38,.45-25.94,1.66-33.51,3.89-9,4.79-9,4.79c5.48,27.84,35.77,37.23,36.71,37.51-27.48-4.13-40.27-27.49-40.27-27.49s-.45,13.14,1.67,18.15,14.59,17.25,30.62,19.81a36.92,36.92,0,0,0,4,.4c13.52.64,24.71-6.27,25.86-7a.29.29,0,0,1,.1-.06l0,0c-.43.66-6,8.45-28.36,9.31-1.36.05-2.68,0-4,0h0c-20.74-.87-31.31-14.69-31.31-14.69s-7.68,4.12-2.78,10.24c.06.06.11.13.16.19,1.45,1.67,4.63,3.7,8.39,5.8l.31.18c4.55,2.51,9.88,5.1,14,7.24l.06,0a50.43,50.43,0,0,1,5.74,3.29h0c1.17.85,1.4,1.4.27,1.53-5.79.67-27.72-4.12-28.61-2.79s1.08,4.79,1.08,4.79c20.13,10,63.2,5.06,64.56,4.91-36.05,9.23-65.54-2.46-65.54-2.46l1,3.46a129,129,0,0,0,35,6c18.93.44,30.74-4.4,30.74-4.4Z" transform="translate(-91.83 -35.74)"/><path class="cls-41" d="M293.78,210.55s14.34.77,23.81,3.28l-4.88,7.41A65.09,65.09,0,0,0,293.78,210.55Z" transform="translate(-91.83 -35.74)"/><path class="cls-42" d="M307.18,250.06s-8.95,7.47-17.74,10.92a59.36,59.36,0,0,1-17.26,3.78s5.06,1.51,17.5-.5,16.7-8.74,16.7-8.74Z" transform="translate(-91.83 -35.74)"/><path class="cls-43" d="M311.19,278.8h0c-16.55,4.28-37.56-1.86-37.39-2.61s5.76.34,18.7-2.25c12.54-2.52,17.09-7,17.36-7.25-.11.76-1.83,2.43-2.33,4.24C307.2,272.15,309.54,276,311.19,278.8Z" transform="translate(-91.83 -35.74)"/><path class="cls-44" d="M266.23,212.79c-14.13,1.44-17.94,5.38-17.94,5.38-4,.5-12.9-9.68-12.9-9.68l-1.17-1.34s-7.18,16.37-13.69,24.38c-.78.95-1.6,1.89-2.45,2.8l.93-2.08s1.52-.72,2-8.68-3.34-19.81-3.37-21.43-.58-9.77-.58-9.77l12.08,7.21-2.23-7.07,8.8,7.07s3.44,5.18,12.14,9.5C256,213.16,265.22,212.83,266.23,212.79Z" transform="translate(-91.83 -35.74)"/><path class="cls-45" d="M234.22,207.15l8.42-1.1a63.4,63.4,0,0,0,10.13,5l-5.64,8.31s2.24,11.84,8.66,18.52c0,0-17-9.46-19.43-17.41Z" transform="translate(-91.83 -35.74)"/><path class="cls-46" d="M185.05,181.94l2.41,6.34s2.45,8.55,7.32,8.91,9.64-14.34,9.64-14.34v-9.69s-5.19,11.11-10.78,12.36S185.05,181.94,185.05,181.94Z" transform="translate(-91.83 -35.74)"/><path class="cls-47" d="M214.18,176.93s4.34,8.68,9.69,11.35c0,0-6.36-15.42-5-24.49C218.85,163.79,216.52,165.24,214.18,176.93Z" transform="translate(-91.83 -35.74)"/><path class="cls-48" d="M319.72,189.79l1.5,4.83,1.52,39.71A95.51,95.51,0,0,1,316.19,216l1.4-2.16S320,198.86,319.72,189.79Z" transform="translate(-91.83 -35.74)"/><path class="cls-49" d="M365.86,201.47S365,221,373.3,222.66l.41,2.09S363,224.35,365.86,201.47Z" transform="translate(-91.83 -35.74)"/><path class="cls-50" d="M352,207.4s-.32.7-3.33-1.48c0,0-10.43,7.38-14.44,17.79,0,0,6.42-9.56,9.84-10.6s4.25,2.78,4.25,2.78S349.7,210.52,352,207.4Z" transform="translate(-91.83 -35.74)"/><path class="cls-51" d="M184,192.12s4,7.4,11.53,5.08c0,0-4.51,3-9,.56C186.46,197.76,183.66,193,184,192.12Z" transform="translate(-91.83 -35.74)"/><path class="cls-52" d="M210.22,182.76s5.52,20.62-8.87,36.12A23.89,23.89,0,0,0,212.81,203,34.15,34.15,0,0,0,210.22,182.76Z" transform="translate(-91.83 -35.74)"/><path class="cls-53" d="M309.06,166.28s-.62,9.31-5.09,16-13.31,11.19-13.31,11.19,11.11-4.09,16.2-9.86S309.06,166.28,309.06,166.28Z" transform="translate(-91.83 -35.74)"/><path class="cls-54" d="M252.25,152.27A58.75,58.75,0,0,0,254.76,168c2.5,7.93,24.25,21.79,24.25,21.79s-22.41-9.31-26.76-17.68S252.25,152.27,252.25,152.27Z" transform="translate(-91.83 -35.74)"/><path class="cls-55" d="M252,189.34V202s29.18-.24,61.9,1.93l.75-11.41A571.52,571.52,0,0,0,252,189.34Z" transform="translate(-91.83 -35.74)"/><path class="cls-56" d="M257.41,192.23c0-.21.11-.32.31-.31l5.92.18a4.22,4.22,0,0,1,1.48.26,2.42,2.42,0,0,1,1,.66,2.4,2.4,0,0,1,.52,1,4.47,4.47,0,0,1,.14,1.3l-.05,1.63a4.7,4.7,0,0,1-.22,1.29,2.31,2.31,0,0,1-1.59,1.56,4.29,4.29,0,0,1-1.5.18l-3.19-.1-.66-1.86h-.08l-.06,1.84-2.23-.07Zm2.06,5.58,3.78.12a1.2,1.2,0,0,0,.92-.26,1.38,1.38,0,0,0,.3-1l0-1.33a1.37,1.37,0,0,0-.24-1,1.25,1.25,0,0,0-.9-.29l-3.62-.11a.17.17,0,0,0-.12.05.15.15,0,0,0,0,.11Z" transform="translate(-91.83 -35.74)"/><path class="cls-56" d="M270,195.62h-.08l-.07,2.36c0,.11,0,.16.15.16l6.64.2-.06,2-8.71-.27a.28.28,0,0,1-.31-.33l.22-7.23c0-.22.11-.32.32-.32l8.47.26a.29.29,0,0,1,.32.33l-.07,2.05-2.09.71h-.08l0-1c0-.08,0-.12-.11-.12l-4.47-.14a.12.12,0,0,0-.11.05.19.19,0,0,0,0,.1l0,1,3.68.11-.05,1.6-3.09-.09Z" transform="translate(-91.83 -35.74)"/><path class="cls-56" d="M284.73,195.47h-.08l0-.87c0-.09,0-.13-.12-.13l-4.16-.13a.33.33,0,0,0-.41.37v.19a.39.39,0,0,0,.07.3.59.59,0,0,0,.29.1l4.87.83a3.3,3.3,0,0,1,.78.23,1.36,1.36,0,0,1,.52.37,1.19,1.19,0,0,1,.28.56,3,3,0,0,1,.06.77l0,.63a2.7,2.7,0,0,1-.14.85,1.57,1.57,0,0,1-.41.62,1.85,1.85,0,0,1-.73.36,3.93,3.93,0,0,1-1.09.1l-7-.21.06-2,6.29.19a.47.47,0,0,0,.38-.09.55.55,0,0,0,.1-.36v-.22a.52.52,0,0,0-.06-.29.49.49,0,0,0-.28-.11l-4.7-.74a3.27,3.27,0,0,1-.81-.22,1.55,1.55,0,0,1-.55-.36,1.3,1.3,0,0,1-.3-.54,2.81,2.81,0,0,1-.07-.75l0-.55A1.84,1.84,0,0,1,278,193a2.06,2.06,0,0,1,1.53-.42l7,.21a.3.3,0,0,1,.32.36l-.05,1.62Z" transform="translate(-91.83 -35.74)"/><path class="cls-56" d="M287.69,200.72l.24-7.89,2.23.07-.24,7.88Z" transform="translate(-91.83 -35.74)"/><path class="cls-56" d="M298.2,197.65v-.36q0-.19,0-.33v-.1l2.21.07-.12,3.86c0,.21-.1.31-.28.3l-5.93-.18a4.51,4.51,0,0,1-1.49-.27,2.57,2.57,0,0,1-1-.66,2.51,2.51,0,0,1-.52-1,4.45,4.45,0,0,1-.13-1.3l.05-1.62a4.25,4.25,0,0,1,.21-1.29,2.34,2.34,0,0,1,1.6-1.57,4.49,4.49,0,0,1,1.5-.17l5.9.18q.31,0,.3.33l-.05,1.7-2.09.7h-.09l0-.75c0-.08,0-.11-.1-.12l-3.76-.11a2.24,2.24,0,0,0-.55,0,.74.74,0,0,0-.37.2.83.83,0,0,0-.22.38,2,2,0,0,0-.08.6l0,1.39a1.47,1.47,0,0,0,.24,1,1.25,1.25,0,0,0,.91.31L298,199a.11.11,0,0,0,.12-.12Z" transform="translate(-91.83 -35.74)"/><path class="cls-56" d="M305.09,193.36a.58.58,0,0,1,.35.08.74.74,0,0,1,.19.25l2.81,5.75a.26.26,0,0,0,.21.14h.11c.12,0,.18-.05.18-.17l.18-5.93,2,.06-.23,7.57c0,.21-.11.31-.32.3l-3.2-.1a.48.48,0,0,1-.54-.33l-2.93-5.74a.21.21,0,0,0-.2-.14h-.11a.16.16,0,0,0-.18.17l-.18,5.92-2-.06.23-7.56c0-.22.11-.32.31-.31Z" transform="translate(-91.83 -35.74)"/><path class="cls-57" d="M298.17,154c-.68,8.2-3.18,13.91-5.84,17.76a21.26,21.26,0,0,1-7.63,7.09,45.13,45.13,0,0,1-10.37-6.25,52.83,52.83,0,0,1-16.93-25.11,58.46,58.46,0,0,0,19,25,38.14,38.14,0,0,0,8.3,4.86v-4.1A27,27,0,0,1,282,172c-10.39-5.25-15.86-16.18-18.42-23.25a.08.08,0,0,0,0,0,48.64,48.64,0,0,1-1.92-6.51h1.88l-.62,1.32,0,0c.3,1.34.64,2.63,1,3.85a.62.62,0,0,0,0,.1c5.82,18.35,20.79,24.27,20.79,24.27,10.4-7.68,10.19-19.87,10.19-19.87v-1.67l1.95.58Z" transform="translate(-91.83 -35.74)"/><path class="cls-58" d="M359.87,198.5s-2.83,9.23-.16,23.6c0,0,1.34-18.21,2.34-19.79s3.81-.84,3.81-.84S361.44,199,359.87,198.5Z" transform="translate(-91.83 -35.74)"/><path class="cls-59" d="M332.44,248.71C330,246.55,327,243,324.06,237c-5.91-11.8-7.6-19.68-7.87-21l1.4-2.16,1.88-18.16,1.75-1a74,74,0,0,0,11-17.36,4.49,4.49,0,0,1,.23.76h0c1,3.77,2.94,17.9,4.77,22.94a11.5,11.5,0,0,0,4.29,5.78s-10.85,16.1-11.38,27.58C329.69,244.78,332,248.18,332.44,248.71Z" transform="translate(-91.83 -35.74)"/><path class="cls-60" d="M268,282.27s-19.56-3.2-27.54-8.35h0a5.75,5.75,0,0,0,.1-1.3c-.17-4.41-4-8.31-4.51-10.82.09.24.67,1.56,3.44,3.94a59.06,59.06,0,0,0,8.39,5.8l.31.18c5.64,3.33,10.5,5.59,14,7.24l.06,0c3.15,1.48,5.2,2.46,5.74,3.29Z" transform="translate(-91.83 -35.74)"/><path class="cls-61" d="M309.86,266.7c-.11.76-1.83,2.43-2.33,4.24,0,0-7.17,7.6-33.73,5.26.18-.75,5.76.34,18.7-2.25C305,271.43,309.59,267,309.86,266.7Z" transform="translate(-91.83 -35.74)"/><path class="cls-62" d="M301.35,148.42A27.56,27.56,0,0,1,284.7,146c-8.74-4.23-16.08-16.7-16.53-19.81s3.34-11.24,3.34-17.59-3.11-17.26,2.12-23.16,29.28-6.79,37.08.78c0,0,2.41,6.07,2.41,9.49a25,25,0,0,1-.37,3.45c-.07.52-.17,1.08-.26,1.65-.69,4.15-1.65,9.22-1.2,11.44a11.46,11.46,0,0,0,.69,2.17h0c1,2.22,2.39,4,2.65,5.91C315,122.82,311.6,140.63,301.35,148.42Z" transform="translate(-91.83 -35.74)"/><path class="cls-63" d="M271.45,106.78s-2.16-5.42-7.59-5.5c0,0-3.17,1.25-3.67,3.67,0,0,1.17,8.77,2.5,12.86s6.24,3.5,6.24,3.5A20.8,20.8,0,0,0,271.45,106.78Z" transform="translate(-91.83 -35.74)"/><path class="cls-64" d="M292.31,124.63a5,5,0,0,1,2.58.44c.78.59,3.62,3.34,7.21,4.09s6-2.3,6.76-2.46,1.61.93,1.61.93a3,3,0,0,0-2.2-1.82s-.76,2.88-6,1.89-7.42-3.29-7.42-3.29l-.26-.48A14.08,14.08,0,0,0,292.31,124.63Z" transform="translate(-91.83 -35.74)"/><path class="cls-65" d="M284.63,97.67l.07-.56s5.19-9.11,15.46-9.36,12.59,6.19,12.59,6.19l1.9-2.89-4.33-8.81-30.18-.5-7.35,5.93-.92,14.51,3.26,19.16,7.95,4.23,2.24-2c-.82-6.41-5.6-12.27-5.6-12.27l3.48-2.42s8.94,4.33,14.1,3c0,0,3.88-11.33,3.66-19.73C301,92.19,287.73,94.15,284.63,97.67Z" transform="translate(-91.83 -35.74)"/><path class="cls-66" d="M284.17,98.34s.5-3.28,6-4.59c6.17-1.47,11.18-2.7,11.18-2.7s-1.09,3.6-3.15,5c0,0-6.53-.24-9.83.51S284.17,98.34,284.17,98.34Z" transform="translate(-91.83 -35.74)"/><path class="cls-66" d="M312.75,93.94s-3.13,2.41-5.26,8.17c0,0,2-2.67,3.92-2.63a1.07,1.07,0,0,1,1.08,1.3A12,12,0,0,0,312.75,93.94Z" transform="translate(-91.83 -35.74)"/><path class="cls-67" d="M286.24,107.62s.33-6.93,7.09-8.68a14.13,14.13,0,0,1,2.68,6.68S292.42,105,286.24,107.62Z" transform="translate(-91.83 -35.74)"/><path class="cls-68" d="M305.61,110.38s.55-5.52,3.71-7.56c0,0,2.16,1.62,1.94,6.24C311.26,109.06,309.37,108.37,305.61,110.38Z" transform="translate(-91.83 -35.74)"/><path class="cls-69" d="M286.24,107.62s2.2,2.7,8.35,3.23a9.61,9.61,0,0,0,1.06-5.27S290,105,286.24,107.62Z" transform="translate(-91.83 -35.74)"/><path class="cls-69" d="M305.61,110.38v.8s.94,2,4.34,2.32a9.6,9.6,0,0,0,1.19-4.48S309,108.49,305.61,110.38Z" transform="translate(-91.83 -35.74)"/><path class="cls-70" d="M292.81,105.43a7.63,7.63,0,0,0-1.42,4.89,23.57,23.57,0,0,0,3.2.53,8.33,8.33,0,0,0,1.06-5.27A8.52,8.52,0,0,0,292.81,105.43Z" transform="translate(-91.83 -35.74)"/><path class="cls-70" d="M308.83,109.12s-.88.94-1.05,3.85a6.64,6.64,0,0,0,2.17.53,8.07,8.07,0,0,0,1.19-4.48A4,4,0,0,0,308.83,109.12Z" transform="translate(-91.83 -35.74)"/><path class="cls-66" d="M292.31,110.53s-.56-3.75,1.58-5.18l1.76.23a7.55,7.55,0,0,1-1.06,5.27S292.84,110.65,292.31,110.53Z" transform="translate(-91.83 -35.74)"/><path class="cls-66" d="M309.61,109a16,16,0,0,0-1.17,4.26,4.93,4.93,0,0,0,1.51.29,7.36,7.36,0,0,0,1.19-4.48A3.66,3.66,0,0,0,309.61,109Z" transform="translate(-91.83 -35.74)"/><path class="cls-71" d="M286.24,107.62s4.09-2.38,11.06-1l-1.29-1A11.64,11.64,0,0,0,286.24,107.62Z" transform="translate(-91.83 -35.74)"/><path class="cls-71" d="M305.61,110.38a11,11,0,0,1,7.1-.82l-1.57-1.17A7.7,7.7,0,0,0,305.61,110.38Z" transform="translate(-91.83 -35.74)"/><path class="cls-13" d="M290.66,107.62a2.44,2.44,0,0,1,2.12.77A1.94,1.94,0,0,1,290.66,107.62Z" transform="translate(-91.83 -35.74)"/><path class="cls-13" d="M307.11,110.85s1.75-.34,2.35.46C309.46,111.31,308.53,112,307.11,110.85Z" transform="translate(-91.83 -35.74)"/><path class="cls-72" d="M286.65,108a16,16,0,0,0,8.27,3.89l.13-1.85-.46.78S289.69,110.56,286.65,108Z" transform="translate(-91.83 -35.74)"/><path class="cls-72" d="M305.61,111.18s.56,2,4.71,3l-.14-1-.23.36S307,113.12,305.61,111.18Z" transform="translate(-91.83 -35.74)"/><path class="cls-73" d="M297.3,119.31a14.93,14.93,0,0,1,4.38,0c2.84.34,6,1.12,7.78,0,0,0-2.32,2.32-4.32,2.67s-5.07-1.41-5.07-1.41l-1.34,0A3.64,3.64,0,0,1,297.3,119.31Z" transform="translate(-91.83 -35.74)"/><path class="cls-74" d="M298.93,120.59a2.13,2.13,0,0,1,1.28-.33c.58.11,1.18,1,1.18,1A5.94,5.94,0,0,0,298.93,120.59Z" transform="translate(-91.83 -35.74)"/><path class="cls-75" d="M309.46,119.31c.74-.72-3.1-7.56-4.94-7.82s-3.56,7.67-3.56,7.67l5,.69C308.47,120.19,309.46,119.31,309.46,119.31Z" transform="translate(-91.83 -35.74)"/><path class="cls-76" d="M312.09,97.92c-1-.13-4.71,4.34-4.71,4.34s-2.34,7.24-1.88,9.38,6.13,3.28,6.13,3.28l.24-.37h0a11.48,11.48,0,0,1-.7-2.17c-.44-2.22.52-7.29,1.21-11.44a8.75,8.75,0,0,0,.26-1.65C312.66,98.61,312.57,98,312.09,97.92Z" transform="translate(-91.83 -35.74)"/><path class="cls-77" d="M312,127.16c-1.18-2.45-.45-3.73-10.63-5.06-14.41-1.9-15.65,2.5-18.1,1.83l-.29-.1c-2.65-1-8.9-7.18-9.06-15.45-.17-8.61,5.6-14.7,5.6-14.7-2.09-1.76-2.93-6.84-.67-9S285,83,294.42,84s9.44.42,9.44.42c3,.77,4.71,3.58,5.2,4.48l.14.28,1.17-1.08a15.37,15.37,0,0,1,2.59,9.6s5.18-10.53,4.58-12a39.76,39.76,0,0,0-4.24-7h0s-.84-8-3.34-8-13.2,2.41-13.2,2.41a15.06,15.06,0,0,0,1-5.92l-.05,0c-3.49,3.13-6.9,3.48-11.73,5.71a12.37,12.37,0,0,0-4.52,3.28l-.32.39-.35.42c-.33.42-.68.85-1.09,1.29a.23.23,0,0,1-.05,0l0,0a15.26,15.26,0,0,1-1.4,1.31c-3.17,2.59-10.15,4.31-11,7s1.06,6.45,2.06,10.29a20.86,20.86,0,0,1,.54,7.24,14.2,14.2,0,0,1,2.22,10.54c-1,5.62-3.12,6.54-3.12,6.54a9.56,9.56,0,0,0-.79,6c3.08,12.27,15.84,19.57,15.84,19.57,11.36,4.24,18.82,2.39,18.82,2.39h0c8.26-5.38,11.09-23.2,11.21-24C313.88,125.43,312.35,127.81,312,127.16Zm-5.1,11.36c-2-.34-2.42-5.4-3.08-6.07s-4.29-.39-4.29-.39-3.34,3.79-4.68,3.89-8.46-2.78-6.91-7.12,6.91-4.9,6.91-4.9a13,13,0,0,0,7,2.61c4.18.27,5.68-.49,6.18-.71s3.19,1,3.12,4.78C311.1,133.25,309,138.85,306.94,138.52Z" transform="translate(-91.83 -35.74)"/><path class="cls-78" d="M306.42,113s3.6,4.46,3.26,6.14c-.38,1.84-4.54,2.82-4.54,2.82s3.34-1.15,4-2.82A22.18,22.18,0,0,0,306.42,113Z" transform="translate(-91.83 -35.74)"/><path class="cls-79" d="M313,97.69a15.37,15.37,0,0,0-2.59-9.6,25.62,25.62,0,0,0,2.92-9.44h0a32.34,32.34,0,0,1,1.35,6.25l2.89.76C318.14,87.16,313,97.69,313,97.69Z" transform="translate(-91.83 -35.74)"/><path class="cls-80" d="M309.06,88.89c-.49-.9-2.21-3.71-5.2-4.48,0,0,0,.58-9.44-.42s-13.27-1.5-15.53.67-1.42,7.26.67,9c0,0-5.77,6.09-5.6,14.7.16,8.27,6.41,14.42,9.06,15.45l-.12.91s.47,19,5.08,20.46,14.15.72,15,1.61-.12,2.3-.21,2.43h0s-7.46,1.85-18.82-2.39c0,0-12.76-7.3-15.84-19.57a9.56,9.56,0,0,1,.79-6s2.14-.92,3.12-6.54a14.2,14.2,0,0,0-2.22-10.54,20.86,20.86,0,0,0-.54-7.24c-1-3.84-2.9-7.57-2.06-10.29a12.06,12.06,0,0,0,8.85-2s.93-1.3,5.07-2,20.74,1,20.74,1a14.08,14.08,0,0,0-5.17-2.3c-3.32-.88-14.63.14-15.85.23,1.3-.22,14.13-2.43,15.59-2s7.11,3,7.11,3c-.51-2.55-5.48-8.68-5.48-8.68a77.75,77.75,0,0,0-11.6,1.08,15.06,15.06,0,0,0-6.79,3.12L280.79,77l.35-.42.32-.39,1.61-.27,8.05-3.25c2.71-1.45,6.17-5,6.59-5.47l.05,0a15.06,15.06,0,0,1-1,5.92c6.81-.84,9.11-.41,9.11-.41C309,77,309.06,88.89,309.06,88.89Z" transform="translate(-91.83 -35.74)"/><path class="cls-81" d="M284,146.86a42.88,42.88,0,0,1,10.47-.73c6.29.25,9.91.28,8.35,3.12C302.8,149.25,294.89,151,284,146.86Z" transform="translate(-91.83 -35.74)"/><path class="cls-66" d="M305.86,72.64s3.83-1.5,5.34-1.25a2.91,2.91,0,0,0-1.23-1c-.63-.17-13.22,2.62-13.22,2.62S304.61,72.14,305.86,72.64Z" transform="translate(-91.83 -35.74)"/><path class="cls-77" d="M298.09,74.06s-.3,4.16-1.63,5.67l-15.59,2-4.57-.8a11.51,11.51,0,0,0,3.71-3C282,75.62,292.12,73.39,298.09,74.06Z" transform="translate(-91.83 -35.74)"/><path class="cls-66" d="M313.29,78.65a34.69,34.69,0,0,1,1.36,6.26l2.89.76A20.64,20.64,0,0,0,313.29,78.65Z" transform="translate(-91.83 -35.74)"/><path class="cls-82" d="M270.8,114.14s-1.09-5.26-3.78-7.87a6.31,6.31,0,0,0-5.75-1.76s.84,9.75,1.71,12.13a5.25,5.25,0,0,0,2.22,3,7.53,7.53,0,0,1-2.13-4.88c-.25-3.22-.34-7.77.37-8.32S267,108,267,108a9.46,9.46,0,0,0-1.45,4c-.54,2.88,1.46,5,2.21,4.92s0-3.32.09-4.27S269.66,111.92,270.8,114.14Z" transform="translate(-91.83 -35.74)"/><path class="cls-83" d="M268.12,107.6a6.55,6.55,0,0,0-2.61,5.88c.31,4,2.57,3.78,2.58,3a24.47,24.47,0,0,1-.2-4.18c.23-1.2,2.18-.66,2.18-.66A29,29,0,0,0,268.12,107.6Z" transform="translate(-91.83 -35.74)"/><path class="cls-66" d="M314,125.21s-3.65,16.63-11.22,24C302.8,149.25,311.44,145.86,314,125.21Z" transform="translate(-91.83 -35.74)"/><path class="cls-66" d="M310,70.43s1.92,1.49,2.29,6.69-1.89,11-1.89,11a20.91,20.91,0,0,0,3.17-9C313.82,74.31,311.49,71,310,70.43Z" transform="translate(-91.83 -35.74)"/><path class="cls-66" d="M286.67,81.31a44.9,44.9,0,0,0,9.34,2l5.88.53a11.37,11.37,0,0,0-6.14-2.48A42.6,42.6,0,0,0,286.67,81.31Z" transform="translate(-91.83 -35.74)"/><path class="cls-66" d="M308.18,125.57a3.36,3.36,0,0,1,3,2.68,21.88,21.88,0,0,1,.85,4l.75-2.93s-1-3.71-2-4.54a4.27,4.27,0,0,0-2.61-1.07Z" transform="translate(-91.83 -35.74)"/><path class="cls-66" d="M302.44,122.9l.36,3.18a11.4,11.4,0,0,0,4.31-.51l.31-1.92A24.32,24.32,0,0,0,302.44,122.9Z" transform="translate(-91.83 -35.74)"/><path class="cls-84" d="M314.28,163.91s15.18,11.09,17.15,14.9,2.77,15.78,5.43,21c0,0-1.82-8.47-3.1-15.11s-1-6.73-1.68-8.36S320,166.8,314.28,163.91Z" transform="translate(-91.83 -35.74)"/><path class="cls-85" d="M311.56,225.64s-7.32,31.33-7,33.44,5.07,6.44,5.29,7.62c0,0-3.62,4.85-3.45,5.92s6.34,7.87,6.17,10c0,.61-4.05,7.22-4.05,7.22s4.53-6.5,4.75-7.54-5.55-9.71-5.72-10.6c-.44-2.28,2.88-4,3-5.46s-4.49-5.18-4.52-7.63S311.56,225.64,311.56,225.64Z" transform="translate(-91.83 -35.74)"/><path class="cls-86" d="M313,300.32s11.26,20.35,18.38,55.89C331.42,356.21,331.7,337.87,313,300.32Z" transform="translate(-91.83 -35.74)"/><path class="cls-75" d="M212.74,156.72s-4.1-.88-5.8-4.45-.59-8.74-.59-8.74a89.78,89.78,0,0,0,4.81,8.25C212.75,153.88,213.18,156.27,212.74,156.72Z" transform="translate(-91.83 -35.74)"/><path class="cls-87" d="M339,138.05l2.84,80.9a6,6,0,0,0,5.95,5.75H487.2a6,6,0,0,0,6-5.82L495.11,137a6,6,0,0,0-6-6.1L345,131.88A6,6,0,0,0,339,138.05Z" transform="translate(-91.83 -35.74)"/><path class="cls-88" d="M487.2,224.92H347.83a6.15,6.15,0,0,1-6.17-6l-2.84-80.91a6.18,6.18,0,0,1,6.14-6.39l144.15-.95a6.24,6.24,0,0,1,4.45,1.85,6.05,6.05,0,0,1,1.77,4.48l-1.95,81.85A6.14,6.14,0,0,1,487.2,224.92Zm2-93.77h0L345,132.1a5.72,5.72,0,0,0-5.7,5.94l2.84,80.9a5.72,5.72,0,0,0,5.73,5.54H487.2a5.77,5.77,0,0,0,5.74-5.6L494.89,137a5.74,5.74,0,0,0-5.73-5.88Z" transform="translate(-91.83 -35.74)"/><path class="cls-80" d="M339.25,142.17H495l.25-4.27a6.53,6.53,0,0,0-6.57-6.91l-144.11,1.13a5.42,5.42,0,0,0-5.36,5.51Z" transform="translate(-91.83 -35.74)"/><polygon class="cls-89" points="255.24 112.96 255.24 159.78 302.9 159.78 302.9 112.71 255.24 112.96"/><rect class="cls-90" x="348.96" y="116.1" width="20.73" height="20.73"/><rect class="cls-91" x="373.42" y="116.1" width="20.73" height="20.73"/><rect class="cls-92" x="324.09" y="116.1" width="20.73" height="20.73"/><rect class="cls-93" x="341.14" y="148.92" width="53.02" height="4.97"/><rect class="cls-93" x="327.88" y="156.48" width="66.28" height="1.54"/><rect class="cls-93" x="328.5" y="139.47" width="12.68" height="1.54"/><rect class="cls-93" x="352.99" y="139.47" width="12.68" height="1.54"/><rect class="cls-93" x="377.45" y="139.47" width="12.68" height="1.54"/><rect class="cls-93" x="324.09" y="158.97" width="21.32" height="1.54"/><rect class="cls-93" x="327.88" y="161.44" width="66.28" height="1.54"/><rect class="cls-93" x="324.09" y="163.91" width="70.06" height="1.54"/><rect class="cls-93" x="324.09" y="166.38" width="70.06" height="1.54"/><rect class="cls-93" x="327.88" y="176.36" width="66.28" height="1.54"/><rect class="cls-93" x="324.09" y="178.83" width="70.06" height="1.54"/><rect class="cls-93" x="324.09" y="181.3" width="70.06" height="1.54"/><rect class="cls-93" x="324.09" y="168.85" width="67.24" height="1.54"/><rect class="cls-93" x="327.88" y="171.32" width="66.28" height="1.54"/><rect class="cls-93" x="324.09" y="173.78" width="56.76" height="1.54"/><path class="cls-94" d="M360.43,186.13A13.56,13.56,0,1,1,374,172.57,13.58,13.58,0,0,1,360.43,186.13Zm0-26.24a12.68,12.68,0,1,0,12.67,12.68A12.7,12.7,0,0,0,360.43,159.89Z" transform="translate(-91.83 -35.74)"/><circle class="cls-13" cx="268.6" cy="136.83" r="7.37"/><path class="cls-94" d="M394.74,162a13.56,13.56,0,1,1,13.55-13.56A13.58,13.58,0,0,1,394.74,162Zm0-26.24a12.68,12.68,0,1,0,12.67,12.68A12.7,12.7,0,0,0,394.74,135.77Z" transform="translate(-91.83 -35.74)"/><circle class="cls-13" cx="394.74" cy="148.45" r="6.93" transform="translate(94.9 479.57) rotate(-81.06)"/><polygon class="cls-13" points="252.87 100.08 253.86 98.57 259.22 103.27 258.4 104.41 252.87 100.08"/><polygon class="cls-13" points="259.36 100.08 258.37 98.57 253.01 103.27 253.83 104.41 259.36 100.08"/><rect class="cls-13" x="351.37" y="99.59" width="47.98" height="2.41"/><polygon class="cls-95" points="98.87 64.86 98.87 85.68 123.77 85.89 124.11 64.19 98.87 64.86"/><polygon class="cls-96" points="124.11 64.19 125.73 66.93 124.92 85.87 123.77 85.89 124.11 64.19"/><polygon class="cls-13" points="103.32 71.89 105.62 68.55 118.05 78.98 116.14 81.53 103.32 71.89"/><polygon class="cls-13" points="118.37 71.89 116.07 68.55 103.64 78.98 105.54 81.53 118.37 71.89"/><path class="cls-97" d="M248.8,345.66H163.58a7,7,0,0,1-7-6.82L155,269a7,7,0,0,1,7-7.14h88.73a7,7,0,0,1,7,7.17l-1.91,69.89A7,7,0,0,1,248.8,345.66Z" transform="translate(-91.83 -35.74)"/><path class="cls-98" d="M248.8,345.88H163.58a7.22,7.22,0,0,1-7.19-7l-1.6-69.9a7.19,7.19,0,0,1,7.2-7.36h88.73a7.19,7.19,0,0,1,7.19,7.39L256,338.88A7.16,7.16,0,0,1,248.8,345.88ZM162,262a6.75,6.75,0,0,0-6.75,6.91l1.59,69.9a6.79,6.79,0,0,0,6.75,6.6H248.8a6.73,6.73,0,0,0,6.76-6.57l1.91-69.9a6.75,6.75,0,0,0-6.75-6.94Z" transform="translate(-91.83 -35.74)"/><rect class="cls-13" x="86.15" y="240.37" width="44.82" height="1.92"/><rect class="cls-13" x="86.15" y="245.03" width="22.41" height="1.92"/><rect class="cls-13" x="86.15" y="248.93" width="22.41" height="1.92"/><rect class="cls-13" x="111.08" y="248.93" width="17.83" height="1.92"/><rect class="cls-13" x="86.15" y="252.83" width="36.13" height="1.92"/><rect class="cls-13" x="86.15" y="256.72" width="12.86" height="1.92"/><rect class="cls-13" x="101.66" y="268.41" width="22.24" height="1.92"/><rect class="cls-13" x="86.15" y="260.62" width="40.3" height="1.92"/><rect class="cls-13" x="86.15" y="264.52" width="31" height="1.92"/><rect class="cls-13" x="86.15" y="268.41" width="14.58" height="1.92"/><rect class="cls-13" x="86.15" y="272.31" width="22.41" height="1.92"/><rect class="cls-13" x="86.15" y="276.21" width="6.43" height="1.92"/><rect class="cls-13" x="95.23" y="276.21" width="23.32" height="1.92"/><rect class="cls-13" x="101.66" y="279.99" width="22.24" height="1.92"/><rect class="cls-13" x="86.15" y="279.99" width="14.58" height="1.92"/><rect class="cls-13" x="86.15" y="283.88" width="22.41" height="1.92"/><rect class="cls-13" x="86.15" y="287.78" width="6.43" height="1.92"/><rect class="cls-13" x="95.23" y="287.78" width="23.32" height="1.92"/><path class="cls-99" d="M477.46,121.15a3.94,3.94,0,1,1-3.93-3.94A3.93,3.93,0,0,1,477.46,121.15Z" transform="translate(-91.83 -35.74)"/><path class="cls-100" d="M108.27,206.67a4.91,4.91,0,1,1-4.91-4.9A4.9,4.9,0,0,1,108.27,206.67Z" transform="translate(-91.83 -35.74)"/><circle class="cls-101" cx="393.26" cy="85.41" r="3.94"/><circle class="cls-102" cx="139.28" cy="106.67" r="2.78"/><circle class="cls-103" cx="36.28" cy="257.33" r="2.49"/><path class="cls-104" d="M170.56,268.62h-43a6.42,6.42,0,0,1-6.42-6.2l-.95-28.29a6.42,6.42,0,0,1,6.41-6.63h44.83a6.42,6.42,0,0,1,6.42,6.61L177,262.4A6.4,6.4,0,0,1,170.56,268.62Z" transform="translate(-91.83 -35.74)"/><path class="cls-105" d="M170.56,268.84h-43a6.61,6.61,0,0,1-6.64-6.41l-1-28.29a6.63,6.63,0,0,1,6.63-6.86h44.83a6.63,6.63,0,0,1,6.64,6.84l-.87,28.29A6.6,6.6,0,0,1,170.56,268.84Zm-44-41.12a6.2,6.2,0,0,0-6.19,6.41l.95,28.28a6.18,6.18,0,0,0,6.2,6h43a6.16,6.16,0,0,0,6.19-6l.87-28.28a6.2,6.2,0,0,0-6.2-6.39Z" transform="translate(-91.83 -35.74)"/><polygon class="cls-13" points="47.18 201.92 36.58 214.22 47.38 223.38 47.38 218.65 41.13 213.24 46.93 206.68 47.18 201.92"/><polygon class="cls-13" points="65.82 202.48 76.43 214.77 65.63 223.93 65.63 219.2 71.88 213.79 64.92 206.44 65.82 202.48"/><polygon class="cls-13" points="49.49 223.38 58.73 203.03 63.08 203.03 52.61 223.38 49.49 223.38"/><path class="cls-106" d="M414.92,304.78h-53.8a8,8,0,0,1-8-7.75l-1.19-35.39a8,8,0,0,1,8-8.3H416a8,8,0,0,1,8,8.27L423,297A8,8,0,0,1,414.92,304.78Z" transform="translate(-91.83 -35.74)"/><path class="cls-105" d="M414.92,305h-53.8a8.22,8.22,0,0,1-8.25-8l-1.19-35.38a8.23,8.23,0,0,1,8.24-8.53H416a8.23,8.23,0,0,1,8.25,8.5L423.17,297A8.21,8.21,0,0,1,414.92,305Zm-55-51.44a7.81,7.81,0,0,0-7.8,8.07L353.31,297a7.78,7.78,0,0,0,7.81,7.54h53.8a7.77,7.77,0,0,0,7.81-7.57l1.08-35.38a7.81,7.81,0,0,0-7.81-8.05Z" transform="translate(-91.83 -35.74)"/><rect class="cls-93" x="270.85" y="223.3" width="49.28" height="29.27"/><polygon class="cls-13" points="291.13 230.56 291.13 245.3 303.72 237.25 291.13 230.56"/><rect class="cls-93" x="270.85" y="257.96" width="49.28" height="2.68"/><rect class="cls-13" x="270.85" y="257.96" width="12.76" height="2.68"/><polygon class="cls-107" points="133.63 16.24 139.28 27.57 135.51 29.29 130.22 18.88 133.63 16.24"/><polygon class="cls-108" points="6.32 280.07 11.55 285.81 13.61 283.44 8.67 278 6.32 280.07"/><polygon class="cls-109" points="272.29 85.35 267.02 88.54 264.91 84.54 270.67 81.17 272.29 85.35"/><polygon class="cls-110" points="288.26 57.96 286.99 28.3 325.83 28.3 324.23 57.88 288.26 57.96"/><polygon class="cls-111" points="286.99 28.3 285.82 30.05 286.99 57.96 288.26 57.96 286.99 28.3"/><polygon class="cls-13" points="299.88 34.22 293.79 33.57 294.62 53.89 299.88 53.38 299.88 51.27 296.83 51.35 296.49 35.67 299.88 35.77 299.88 34.22"/><polygon class="cls-13" points="312.36 34.22 318.46 33.57 317.62 53.89 312.36 53.38 312.36 51.27 315.41 51.35 315.76 35.67 312.36 35.77 312.36 34.22"/><path class="cls-88" d="M335.69,96.37l-6.49-17L346,82.91ZM329.9,80l5.92,15.49,9.43-12.29Z" transform="translate(-91.83 -35.74)"/><polygon class="cls-88" points="236.86 229.7 230.74 222.08 231.08 221.81 237.2 229.43 236.86 229.7"/><polygon class="cls-88" points="47.96 283.22 35.74 274.35 36 274 48.22 282.86 47.96 283.22"/><rect class="cls-88" x="126.26" y="314.13" width="15.1" height="0.44" transform="translate(-289.16 194.57) rotate(-52.7)"/><rect class="cls-88" x="116" y="182.21" width="0.44" height="8.94" transform="translate(-194.92 166.99) rotate(-62.28)"/><polygon class="cls-88" points="332.16 46.57 331.83 46.28 340.97 35.85 341.3 36.14 332.16 46.57"/><rect class="cls-88" x="248.06" y="107.14" width="0.44" height="9.17" transform="translate(-115.61 86.54) rotate(-26.45)"/><rect class="cls-88" x="179.93" y="250.08" width="13.7" height="0.44" transform="translate(-208.92 142.42) rotate(-39.91)"/></g></g></g></g></svg>