<svg width="105" height="19" viewBox="0 0 105 19" fill="none" xmlns="http://www.w3.org/2000/svg">
<path d="M6.84091 18H0.125V0.545454H6.77273C8.56818 0.545454 10.1193 0.894886 11.4261 1.59375C12.7386 2.28693 13.75 3.28693 14.4602 4.59375C15.1761 5.89489 15.5341 7.45455 15.5341 9.27273C15.5341 11.0909 15.179 12.6534 14.4688 13.9602C13.7585 15.2614 12.7528 16.2614 11.4517 16.9602C10.1506 17.6534 8.61364 18 6.84091 18ZM4.86364 13.9773H6.67045C7.53409 13.9773 8.26989 13.8381 8.87784 13.5597C9.49148 13.2812 9.95739 12.8011 10.2756 12.1193C10.5994 11.4375 10.7614 10.4886 10.7614 9.27273C10.7614 8.05682 10.5966 7.10795 10.267 6.42614C9.94318 5.74432 9.46591 5.2642 8.83523 4.98579C8.21023 4.70739 7.44318 4.56818 6.53409 4.56818H4.86364V13.9773ZM26.3191 18H21.2055L26.9668 0.545454H33.4441L39.2055 18H34.0918L30.2736 5.35227H30.1373L26.3191 18ZM25.3645 11.1136H34.9782V14.6591H25.3645V11.1136ZM43.3662 4.36364V0.545454H58.5366V4.36364H53.2866V18H48.6162V4.36364H43.3662ZM80.9551 7.09091H76.1483C76.1142 6.69318 76.0233 6.33239 75.8756 6.00852C75.7335 5.68466 75.5347 5.40625 75.279 5.17329C75.029 4.93466 74.725 4.75284 74.3671 4.62784C74.0091 4.49716 73.6029 4.43182 73.1483 4.43182C72.3529 4.43182 71.6796 4.625 71.1284 5.01136C70.583 5.39773 70.1682 5.9517 69.8841 6.6733C69.6057 7.39489 69.4665 8.26136 69.4665 9.27273C69.4665 10.3409 69.6085 11.2358 69.8926 11.9574C70.1824 12.6733 70.6 13.2131 71.1455 13.5767C71.6909 13.9347 72.3472 14.1136 73.1142 14.1136C73.5517 14.1136 73.9438 14.0597 74.2904 13.9517C74.637 13.8381 74.9381 13.6761 75.1938 13.4659C75.4495 13.2557 75.6568 13.0028 75.8159 12.7074C75.9807 12.4062 76.0915 12.0682 76.1483 11.6932L80.9551 11.7273C80.8983 12.4659 80.6909 13.2187 80.333 13.9858C79.975 14.7472 79.4665 15.4517 78.8074 16.0994C78.154 16.7415 77.3443 17.2585 76.3784 17.6506C75.4125 18.0426 74.2904 18.2386 73.012 18.2386C71.4097 18.2386 69.9722 17.8949 68.6995 17.2074C67.4324 16.5199 66.4296 15.5085 65.6909 14.1733C64.958 12.8381 64.5915 11.2045 64.5915 9.27273C64.5915 7.32955 64.9665 5.69318 65.7165 4.36364C66.4665 3.02841 67.4779 2.01989 68.7506 1.33807C70.0233 0.650568 71.4438 0.306818 73.012 0.306818C74.1142 0.306818 75.1284 0.457386 76.0546 0.758522C76.9807 1.05966 77.7932 1.5 78.4921 2.07954C79.1909 2.65341 79.7534 3.3608 80.1796 4.2017C80.6057 5.04261 80.8642 6.00568 80.9551 7.09091ZM88.265 18V0.545454H93.0036V7.36364H99.2764V0.545454H104.015V18H99.2764V11.1818H93.0036V18H88.265Z" fill="#198754"/>
</svg>
